<svg width="162" height="161" viewBox="0 0 162 161" fill="none" xmlns="http://www.w3.org/2000/svg">
	<path d="M95.3164 56.501C94.3793 58.1673 93.5377 59.891 92.7727 61.6531C85.5051 60.5614 78.1036 60.5614 70.8169 61.6531C70.071 59.891 69.2104 58.1673 68.2732 56.501C61.4455 57.6693 54.7899 59.7187 48.4786 62.6107C35.9706 81.1699 32.5854 99.2501 34.2685 117.081C41.5934 122.502 49.7982 126.639 58.5385 129.282C60.5084 126.639 62.2488 123.823 63.7405 120.893C60.91 119.839 58.1751 118.518 55.5549 116.986C56.2434 116.488 56.9128 115.971 57.5631 115.473C72.9207 122.712 90.7072 122.712 106.084 115.473C106.734 116.009 107.404 116.526 108.092 116.986C105.472 118.537 102.737 119.839 99.8873 120.912C101.379 123.842 103.12 126.658 105.089 129.301C113.83 126.658 122.034 122.54 129.359 117.12C131.348 96.4347 125.955 78.5076 115.111 62.6299C108.819 59.7378 102.163 57.6885 95.3355 56.5393L95.3164 56.501ZM65.8826 106.107C61.1586 106.107 57.2379 101.817 57.2379 96.5113C57.2379 91.2059 61.0056 86.8966 65.8634 86.8966C70.7213 86.8966 74.5846 91.2251 74.5081 96.5113C74.4316 101.797 70.7021 106.107 65.8826 106.107ZM97.7453 106.107C93.0022 106.107 89.1198 101.817 89.1198 96.5113C89.1198 91.2059 92.8875 86.8966 97.7453 86.8966C102.603 86.8966 106.447 91.2251 106.371 96.5113C106.294 101.797 102.565 106.107 97.7453 106.107Z" fill="white"/>
</svg>
